<?xml version="1.0" encoding="UTF-8"?>
<svg xmlns="http://www.w3.org/2000/svg" xmlns:xlink="http://www.w3.org/1999/xlink" version="1.1" width="512" height="512" x="0" y="0" viewBox="0 0 3872.983 3872.983" style="enable-background:new 0 0 512 512" xml:space="preserve" class="">
  <g>
    <g fill-rule="evenodd" clip-rule="evenodd">
      <path d="M2893.688 3642.648H983.435c-32.237 0-58.38-26.141-58.38-58.381V300.336c0-32.237 26.143-58.378 58.38-58.378h1910.252c32.237 0 58.378 26.141 58.378 58.378v3283.932c.001 32.239-26.14 58.38-58.377 58.38zm-1851.872-116.759h1793.491V358.716H1041.816z" fill="#ff0000" opacity="1" data-original="#000000"/>
      <path d="M2186.868 623.265h-482.636c-113.438 0-205.703-92.294-205.703-205.703V300.365c0-32.239 26.141-58.38 58.38-58.38 32.237 0 58.378 26.141 58.378 58.38v117.198c0 49.044 39.9 88.944 88.944 88.944h482.636c49.042 0 88.942-39.9 88.942-88.944V300.365c0-32.239 26.144-58.38 58.381-58.38s58.38 26.141 58.38 58.38v117.198c.001 113.409-92.293 205.702-205.702 205.702zM2893.274 3251.234H983.848c-32.239 0-58.38-26.141-58.38-58.381 0-32.237 26.141-58.378 58.38-58.378h1909.427c32.237 0 58.38 26.141 58.38 58.378 0 32.24-26.144 58.381-58.381 58.381zM2172.177 3446.943h-453.253c-32.239 0-58.38-26.144-58.38-58.381s26.141-58.38 58.38-58.38h453.253c32.237 0 58.381 26.143 58.381 58.38s-26.144 58.381-58.381 58.381zM2274.93 2456.052h-672.741c-32.237 0-58.378-26.144-58.378-58.381V1360.043c0-32.24 26.141-58.381 58.378-58.381l672.741.027c32.24 0 58.381 26.143 58.381 58.38v1037.628c0 32.211-26.141 58.355-58.381 58.355zm-614.36-116.735h555.983V1418.45H1660.57z" fill="#ff0000" opacity="1" data-original="#000000"/>
      <path d="M1602.189 2456.052h-381.995c-32.237 0-58.378-26.144-58.378-58.381v-741.172c0-32.237 26.141-58.38 58.378-58.38l381.995.029c32.239 0 58.38 26.141 58.38 58.378 0 32.239-26.141 58.38-58.38 58.38h-323.615v624.411h323.615c32.239 0 58.38 26.144 58.38 58.381s-26.14 58.354-58.38 58.354zM2656.926 2456.052H2274.93c-32.237 0-58.378-26.144-58.378-58.381 0-32.24 26.141-58.381 58.378-58.381l323.617.027v-624.411H2274.93c-32.237 0-58.378-26.141-58.378-58.38 0-32.237 26.141-58.378 58.378-58.378h381.995c32.24 0 58.381 26.141 58.381 58.378v741.172c0 32.21-26.141 58.354-58.38 58.354zM2055.445 2456.052c-32.24 0-58.381-26.144-58.381-58.381v-268.01h-117.006v268.01c0 32.237-26.143 58.381-58.38 58.381s-58.38-26.144-58.38-58.381v-326.389c0-32.239 26.143-58.38 58.38-58.38l233.767.027c32.237 0 58.378 26.143 58.378 58.38v326.389c0 32.21-26.141 58.354-58.378 58.354zM2035.48 1633.654h-193.84c-32.237 0-58.378-26.143-58.378-58.38 0-32.239 26.141-58.38 58.378-58.38l193.84.027c32.24 0 58.38 26.143 58.38 58.38.001 32.237-26.14 58.353-58.38 58.353zM2035.48 1847.456h-193.84c-32.237 0-58.378-26.143-58.378-58.38 0-32.238 26.141-58.38 58.378-58.38h193.84c32.24 0 58.38 26.143 58.38 58.38.001 32.238-26.14 58.38-58.38 58.38z" fill="#ff0000" opacity="1" data-original="#000000"/>
      <path d="M1411.206 1972.123c-32.237 0-58.378-26.141-58.378-58.378v-105.392c0-32.239 26.141-58.38 58.378-58.38 32.239 0 58.38 26.141 58.38 58.38v105.392c-.027 32.237-26.141 58.378-58.38 58.378zM1411.206 2304.224c-32.237 0-58.378-26.141-58.378-58.38v-105.39c0-32.24 26.141-58.38 58.378-58.38 32.239 0 58.38 26.14 58.38 58.38v105.39c-.027 32.239-26.141 58.38-58.38 58.38zM2460.615 1972.123c-32.237 0-58.38-26.141-58.38-58.378v-105.392c0-32.239 26.143-58.38 58.38-58.38 32.238 0 58.38 26.141 58.38 58.38v105.392c0 32.237-26.142 58.378-58.38 58.378zM2460.615 2304.224c-32.237 0-58.38-26.141-58.38-58.38v-105.39c0-32.24 26.143-58.38 58.38-58.38 32.238 0 58.38 26.14 58.38 58.38v105.39c0 32.239-26.142 58.38-58.38 58.38z" fill="#ff0000" opacity="1" data-original="#000000"/>
    </g>
  </g>
</svg>
