<?xml version="1.0" encoding="UTF-8"?>
<svg xmlns="http://www.w3.org/2000/svg" xmlns:xlink="http://www.w3.org/1999/xlink" version="1.1" width="512" height="512" x="0" y="0" viewBox="0 0 512 512" style="enable-background:new 0 0 512 512" xml:space="preserve">
  <g>
    <path d="M338.77 0H173.23c-25.2 0-45.7 20.5-45.7 45.69v344.78c0 25.2 20.5 45.7 45.7 45.7h38.56c1.9 4.76 2.8 9.6 2.8 15.11v6.55h-5.3c-6.49 0-11.76 5.28-11.76 11.76v30.64c0 6.49 5.28 11.76 11.76 11.76h122.66c6.49 0 11.76-5.28 11.76-11.76v-30.64c0-6.49-5.28-11.76-11.76-11.76h-1.35l6.51-15.79c.81-1.99 1.5-3.94 2.07-5.88 25.01-.22 45.3-20.62 45.3-45.69V45.7C384.47 20.5 363.97 0 338.77 0zm-11.05 496.01H213.51v-22.19H327.72zm-97.15-38.18v-6.55c0-10.55-2.46-19.71-7.73-28.86l-37.79-65.45c-.77-1.34-.97-2.91-.56-4.44.39-1.45 1.28-2.66 2.52-3.43 2.72-1.28 6.23-1.39 8.21 2.03l20.44 35.38a7.992 7.992 0 0 0 14.91-4V264.87c0-3.24 2.63-5.87 5.87-5.87s5.87 2.63 5.87 5.87v91.02c0 4.42 3.58 7.99 7.99 7.99s7.99-3.58 7.99-7.99v-54.82c0-3.17 2.69-5.84 5.87-5.84 3.22 0 5.84 2.62 5.84 5.84v62.36c0 4.42 3.58 7.99 7.99 7.99s7.99-3.58 7.99-7.99v-45.35c0-3.22 2.63-5.84 5.87-5.84s5.87 2.62 5.87 5.84v60.49c0 4.42 3.58 7.99 7.99 7.99s7.99-3.58 7.99-7.99v-48.19c0-3.24 2.63-5.87 5.87-5.87s5.87 2.63 5.87 5.87v89.69c0 5.77-.94 10.53-3.14 15.89l-9.02 21.87zm27.73-179.46v-13.5c0-12.05-9.8-21.86-21.86-21.86-11.16 0-20.38 8.41-21.69 19.22-.5-.47-1-.94-1.48-1.42-23.53-23.56-23.53-61.89 0-85.45 23.56-23.56 61.91-23.56 85.47 0 23.53 23.56 23.53 61.89.01 85.44-10.83 10.8-25.27 17-40.45 17.57zm110.18 112.11c0 15.48-11.91 28.23-27.04 29.58v-89.68c0-12.05-9.8-21.86-21.86-21.86-2.63 0-5.15.47-7.48 1.32-3.26-7.96-11.1-13.59-20.24-13.59-2.16 0-4.25.31-6.22.9-.5-2.73-1.51-5.27-2.93-7.54a76.13 76.13 0 0 0 27.33-17.5c29.76-29.79 29.76-78.26 0-108.05-29.8-29.8-78.28-29.8-108.08 0-29.76 29.79-29.76 78.26.02 108.07a77.62 77.62 0 0 0 12.61 10.14v70.42l-5.52-9.56c-5.96-10.34-18.35-13.8-29.45-8.22-.13.07-.27.14-.4.21-5.04 2.9-8.65 7.6-10.17 13.25s-.75 11.54 2.16 16.58l31.88 55.22h-29.86c-16.38 0-29.71-13.33-29.71-29.71V45.7c0-16.38 13.33-29.71 29.71-29.71h165.54c16.38 0 29.71 13.33 29.71 29.71zM318.62 46.29c0 4.42-3.58 7.99-7.99 7.99H201.38c-4.42 0-7.99-3.58-7.99-7.99s3.58-7.99 7.99-7.99h109.25c4.41 0 7.99 3.58 7.99 7.99zm-19.93 179.78H256c-4.42 0-7.99-3.58-7.99-7.99v-42.66c0-4.42 3.58-7.99 7.99-7.99s7.99 3.58 7.99 7.99v34.67h34.7c4.42 0 7.99 3.58 7.99 7.99s-3.58 7.99-7.99 7.99z" fill="#ff0000" opacity="1" data-original="#000000"/>
  </g>
</svg>
