<?xml version="1.0" encoding="UTF-8"?>
<svg xmlns="http://www.w3.org/2000/svg" xmlns:xlink="http://www.w3.org/1999/xlink" version="1.1" width="512" height="512" x="0" y="0" viewBox="0 0 58 60" style="enable-background:new 0 0 512 512" xml:space="preserve">
  <g>
    <g fill="#000" fill-rule="nonzero">
      <path d="M6 60h42a6.006 6.006 0 0 0 6-6v-8.738c.334-.04.652-.166.923-.366a1.993 1.993 0 0 0 .753-1.91l-2.271-13.641A13.945 13.945 0 0 0 54 9.22V3a3 3 0 0 0-3-3H13a3 3 0 0 0-3 3v23H3a3 3 0 0 0-3 3v25a6.006 6.006 0 0 0 6 6zm47.7-16.69L45 39.356v-6.4a13.881 13.881 0 0 0 6.609-2.214zM43 32.953v6.4l-8.7 3.958 2.095-12.575A13.881 13.881 0 0 0 43 32.953zM44 31a12 12 0 1 1 12-12c-.008 6.624-5.376 11.992-12 12zM12 3a1 1 0 0 1 1-1h38a1 1 0 0 1 1 1v4.527c-6.048-4.22-14.334-3.017-18.932 2.749-4.598 5.766-3.928 14.111 1.532 19.069l-2.277 13.643a2 2 0 0 0 2.8 2.143L44 41.1l8 3.635V54a4 4 0 0 1-4 4H10.46A5.969 5.969 0 0 0 12 54zM2 29a1 1 0 0 1 1-1h7v26a4 4 0 1 1-8 0z" fill="#ff0000" opacity="1" data-original="#000000"/>
      <path d="M44 9c-5.523 0-10 4.477-10 10s4.477 10 10 10 10-4.477 10-10c-.006-5.52-4.48-9.994-10-10zm0 18a8 8 0 1 1 8-8 8.009 8.009 0 0 1-8 8zM16 8h12a1 1 0 0 0 0-2H16a1 1 0 0 0 0 2zM16 14h8a1 1 0 0 0 0-2h-8a1 1 0 0 0 0 2zM16 20h5a1 1 0 0 0 0-2h-5a1 1 0 0 0 0 2zM16 26h10a1 1 0 0 0 0-2H16a1 1 0 0 0 0 2zM16 32h12a1 1 0 0 0 0-2H16a1 1 0 0 0 0 2zM16 38h14a1 1 0 0 0 0-2H16a1 1 0 0 0 0 2zM16 44h13a1 1 0 0 0 0-2H16a1 1 0 0 0 0 2zM16 50h32a1 1 0 0 0 0-2H16a1 1 0 0 0 0 2z" fill="#ff0000" opacity="1" data-original="#000000"/>
    </g>
  </g>
</svg>
