<?xml version="1.0" encoding="UTF-8"?>
<svg xmlns="http://www.w3.org/2000/svg" xmlns:xlink="http://www.w3.org/1999/xlink" version="1.1" width="512" height="512" x="0" y="0" viewBox="0 0 512 512" style="enable-background:new 0 0 512 512" xml:space="preserve">
  <g>
    <path fill-rule="evenodd" d="M232.278 242.164c-39.938-14.886-105.7-14.886-145.636 0-35.81 13.347-35.81 30.665 0 44.013 39.937 14.886 105.7 14.886 145.636 0 35.809-13.348 35.81-30.666 0-44.013zM59.727 409.484v39.709c0 7.982 10.286 15.808 26.915 22.006 39.938 14.887 105.7 14.887 145.635 0 16.63-6.2 26.916-14.024 26.916-22.006v-39.709c-40.67 31.915-158.795 31.916-199.466 0zm0-83.64v-39.708c40.669 31.915 158.8 31.915 199.466 0v39.708c0 7.983-10.286 15.808-26.915 22.007-39.938 14.886-105.7 14.886-145.636 0-16.629-6.2-26.915-14.024-26.915-22.007zm199.466 21.966v39.709c0 7.982-10.286 15.808-26.916 22.006-39.937 14.887-105.7 14.887-145.635 0-16.629-6.2-26.915-14.024-26.915-22.006V347.81c40.67 31.915 158.795 31.915 199.466 0zM78.358 326.778l3.852 1.651A6.373 6.373 0 1 0 87.2 316.7l-3.851-1.651a6.373 6.373 0 1 0-4.991 11.728zm0 62.181 3.852 1.651a6.373 6.373 0 1 0 4.99-11.728l-3.851-1.651a6.373 6.373 0 1 0-4.991 11.728zm0 62.181a6.373 6.373 0 1 1 4.991-11.728l3.851 1.651a6.373 6.373 0 1 1-4.99 11.728zM73.1 75.131a6.391 6.391 0 1 1 6.661-6.388 6.388 6.388 0 0 1-6.661 6.388zm36.87 0a6.391 6.391 0 1 1 6.661-6.388 6.388 6.388 0 0 1-6.661 6.388zm36.87 0a6.391 6.391 0 1 1 6.661-6.388 6.388 6.388 0 0 1-6.661 6.388zm73.531 0a6.388 6.388 0 1 1 0-12.776H438.9a6.388 6.388 0 0 1 0 12.776zM46.951 444.378h-9.974A21.022 21.022 0 0 1 16 423.4V37.844a21.022 21.022 0 0 1 20.977-20.977h438.046A21.022 21.022 0 0 1 496 37.844V423.4a21.022 21.022 0 0 1-20.977 20.977H271.968v4.815c0 13.863-13.47 25.816-35.249 33.934-42.948 16.008-111.57 16.008-154.518 0-21.779-8.118-35.25-20.071-35.25-33.934v-4.815zm436.273-324.737V423.4a8.243 8.243 0 0 1-8.2 8.2H271.968V264.17c0-13.863-13.47-25.816-35.249-33.933-42.947-16.009-111.571-16.008-154.519 0-21.778 8.117-35.249 20.07-35.249 33.933V431.6h-9.974a8.241 8.241 0 0 1-8.2-8.2V119.641zM28.776 106.865h454.448V37.844a8.241 8.241 0 0 0-8.2-8.2H36.977a8.241 8.241 0 0 0-8.2 8.2v69.021zm379.287 63.359h-36.834v36.834h36.834zm-43.222-12.776a6.388 6.388 0 0 0-6.388 6.388v49.61a6.388 6.388 0 0 0 6.388 6.388h49.61a6.388 6.388 0 0 0 6.388-6.388v-49.61a6.388 6.388 0 0 0-6.388-6.388zm43.222 101.6h-36.834v36.835h36.834V259.05zm-43.222-12.776a6.389 6.389 0 0 0-6.388 6.388v49.611a6.389 6.389 0 0 0 6.388 6.388h49.61a6.389 6.389 0 0 0 6.388-6.388v-49.609a6.389 6.389 0 0 0-6.388-6.388zm43.222 101.6h-36.834v36.834h36.834v-36.829zM364.841 335.1a6.388 6.388 0 0 0-6.388 6.388V391.1a6.388 6.388 0 0 0 6.388 6.388h49.61a6.388 6.388 0 0 0 6.388-6.388v-49.61a6.388 6.388 0 0 0-6.388-6.388zm-49.508-140.071h25.5a6.388 6.388 0 0 0 0-12.776h-31.888a6.388 6.388 0 0 0-6.388 6.388v82.439H288.22a6.388 6.388 0 1 0 0 12.776h14.337v82.438a6.388 6.388 0 0 0 6.388 6.388h31.891a6.388 6.388 0 0 0 0-12.776h-25.5v-76.05h25.5a6.388 6.388 0 1 0 0-12.776h-25.5z" fill="#ff0000" opacity="1" data-original="#000000"/>
  </g>
</svg>
