<?xml version="1.0" encoding="UTF-8"?>
<svg xmlns="http://www.w3.org/2000/svg" xmlns:xlink="http://www.w3.org/1999/xlink" version="1.1" width="512" height="512" x="0" y="0" viewBox="0 0 511.999 511" style="enable-background:new 0 0 512 512" xml:space="preserve">
  <g>
    <path d="M92.309 52.73c0-13.87-11.282-25.152-25.153-25.152S42 38.86 42 52.73c0 13.872 11.285 25.153 25.156 25.153 13.867 0 25.153-11.281 25.153-25.153zM57 52.73c0-5.597 4.559-10.152 10.156-10.152S77.31 47.133 77.31 52.73c0 5.598-4.555 10.153-10.153 10.153S57 58.328 57 52.73zM126.914 77.883c13.871 0 25.156-11.281 25.156-25.153 0-13.87-11.285-25.152-25.156-25.152-13.871 0-25.152 11.281-25.152 25.152 0 13.872 11.281 25.153 25.152 25.153zm0-35.305c5.602 0 10.156 4.555 10.156 10.152 0 5.598-4.558 10.153-10.156 10.153-5.598 0-10.152-4.555-10.152-10.153 0-5.597 4.554-10.152 10.152-10.152zM186.676 77.883c13.867 0 25.152-11.281 25.152-25.153 0-13.87-11.285-25.152-25.152-25.152-13.871 0-25.156 11.281-25.156 25.152 0 13.872 11.285 25.153 25.156 25.153zm0-35.305c5.597 0 10.152 4.555 10.152 10.152 0 5.598-4.555 10.153-10.152 10.153-5.602 0-10.156-4.555-10.156-10.153 0-5.597 4.554-10.152 10.156-10.152zM269.668 60.23h182.664c4.145 0 7.5-3.355 7.5-7.5s-3.355-7.5-7.5-7.5H269.668c-4.145 0-7.5 3.356-7.5 7.5s3.355 7.5 7.5 7.5zm0 0" fill="#ff0000" opacity="1" data-original="#000000"/>
    <path d="M480.684.5H31.316C14.051.5 0 14.547 0 31.816v417.25c0 17.266 14.05 31.317 31.316 31.317h449.368c17.265 0 31.316-14.051 31.316-31.317V31.816C512 14.546 497.95.5 480.684.5zm0 464.883H31.316c-8.996 0-16.316-7.32-16.316-16.317V104.961h41.809c4.144 0 7.5-3.356 7.5-7.5a7.5 7.5 0 0 0-7.5-7.5H15V31.816C15 22.82 22.32 15.5 31.316 15.5h449.368C489.68 15.5 497 22.82 497 31.816v58.145H84.809a7.5 7.5 0 1 0 0 15H497v344.105c0 8.997-7.32 16.317-16.316 16.317zm0 0" fill="#ff0000" opacity="1" data-original="#000000"/>
    <path d="M424.402 123.66h-65.547c-13.093 0-23.746 10.653-23.746 23.746v9.074a24.975 24.975 0 0 0-16.207 16.223l-117.144.442c-2.442-7.672-8.516-13.739-16.192-16.176v-9.07c0-13.094-10.652-23.747-23.746-23.747H96.277c-13.093 0-23.746 10.653-23.746 23.746v65.543c0 13.094 10.653 23.743 23.746 23.743h9.07a24.966 24.966 0 0 0 16.204 16.203v30.644c0 15.813 12.863 28.676 28.676 28.676h70.648a24.971 24.971 0 0 0 16.2 16.2v9.59c0 12.808 10.421 23.23 23.23 23.23h10.16c2.156 7.515 7.773 13.578 15.008 16.355-2.157 4.297-6.602 7.25-11.723 7.25h-80.11c-1.94-8.645-8.398-15.598-16.75-18.25v-9.074c0-13.094-10.652-23.746-23.745-23.746H87.598c-13.09 0-23.743 10.652-23.743 23.746v65.547c0 13.093 10.653 23.742 23.743 23.742h65.547c13.093 0 23.746-10.649 23.746-23.742v-9.075a24.986 24.986 0 0 0 15.445-14.148h81.414c13.234 0 24.363-9.195 27.332-21.531 8.266-2.324 14.8-8.828 17.172-17.074h8.625c12.812 0 23.23-10.422 23.23-23.23v-19.731c0-4.145-3.355-7.5-7.5-7.5a7.5 7.5 0 0 0-7.5 7.5v19.73c0 4.54-3.691 8.23-8.23 8.23h-9.035c-7.797-22.374-39.274-22.199-46.973 0h-10.566c-4.54 0-8.23-3.69-8.23-8.23v-9.59a24.576 24.576 0 0 0 4.59-1.984c.105-.106 12.765-6.5 12.765-21.715 0-10.777-6.985-20.39-17.356-23.7v-9.585c0-4.54 3.692-8.23 8.23-8.23h66.575c4.539 0 8.23 3.69 8.23 8.23v19.73a7.5 7.5 0 1 0 15 0v-19.73c0-12.809-10.422-23.23-23.23-23.23h-66.574c-12.809 0-23.23 10.421-23.23 23.23v9.586a24.971 24.971 0 0 0-16.2 16.199H150.23c-7.543 0-13.68-6.137-13.68-13.676v-30.644a24.969 24.969 0 0 0 16.2-16.203h9.074c13.09 0 23.742-10.649 23.742-23.743v-9.074c7.696-2.441 13.778-8.527 16.207-16.222l117.145-.442a24.967 24.967 0 0 0 16.191 16.176v9.074c0 13.094 10.653 23.746 23.746 23.746h65.547c13.09 0 23.743-10.652 23.743-23.746v-65.547c0-13.094-10.653-23.746-23.743-23.746zM169.391 400.637c-5.438 0-9.856-4.422-9.856-9.856s4.422-9.855 9.856-9.855 9.855 4.422 9.855 9.855-4.422 9.856-9.855 9.856zm-7.5 22.918c0 4.82-3.922 8.742-8.746 8.742H87.598c-4.82 0-8.743-3.922-8.743-8.742v-65.547c0-4.824 3.922-8.746 8.743-8.746h65.547c4.824 0 8.746 3.922 8.746 8.746v9.074c-23.258 7.41-22.989 40.07 0 47.398zm142.32-68.64c-.023 5.413-4.434 9.808-9.856 9.808-5.417 0-9.828-4.395-9.851-9.809 1.234-13.535 18.523-12.965 19.707 0zm-58.14-59.45c4.726.726 8.359 4.82 8.359 9.742 0 5.445-4.43 9.855-9.856 9.855-5.437 0-9.855-4.421-9.855-9.855 0-6.012 5.37-10.656 11.351-9.742zm-68.005-104.942c-5.433 0-9.855-4.421-9.855-9.855s4.422-9.856 9.855-9.856 9.856 4.422 9.856 9.856-4.418 9.855-9.856 9.855zm-49.015 49.02c-5.977 0-10.664-5.332-9.742-11.356.722-4.726 4.816-8.355 9.742-8.355 5.43 0 9.855 4.414 9.855 9.852s-4.422 9.859-9.855 9.859zm41.515-26.102c0 4.82-3.921 8.743-8.746 8.743h-9.07c-3.898-12.176-16.285-19.383-28.684-16.852-.105.055-14.05 2.27-18.714 16.852h-9.075c-4.824 0-8.746-3.922-8.746-8.743v-65.546c0-4.82 3.922-8.747 8.746-8.747h65.547c4.82 0 8.742 3.926 8.742 8.747v9.074c-10.52 3.351-17.89 13.394-17.324 24.953.043.101.149 16.969 17.324 22.445zm172.043-43.117c5.422 0 9.856 4.41 9.856 9.856 0 5.453-4.442 9.855-9.856 9.855-5.433 0-9.855-4.422-9.855-9.855 0-5.434 4.422-9.856 9.855-9.856zm90.536 42.63c0 4.82-3.922 8.745-8.743 8.745h-65.547c-4.824 0-8.746-3.926-8.746-8.746v-9.074c10.72-3.414 17.903-13.602 17.325-24.973v-.004c-.52-10.312-7.442-19.273-17.325-22.422v-9.074c0-4.82 3.922-8.742 8.746-8.742h65.547c4.82 0 8.743 3.922 8.743 8.742zm0 0" fill="#ff0000" opacity="1" data-original="#000000"/>
  </g>
</svg>
