<?xml version="1.0" encoding="UTF-8"?>
<svg xmlns="http://www.w3.org/2000/svg" xmlns:xlink="http://www.w3.org/1999/xlink" version="1.1" width="512" height="512" x="0" y="0" viewBox="0 0 512 512" style="enable-background:new 0 0 512 512" xml:space="preserve">
  <g>
    <path d="M411.313 30.797v77.656c0 12.867 20.861 23.297 46.594 23.297s46.594-10.43 46.594-23.297V30.797M147.281 155.047v46.594c0 25.733 48.675 46.594 108.719 46.594s108.719-20.861 108.719-46.594v-46.594" style="stroke-width:15;stroke-linecap:round;stroke-linejoin:round;stroke-miterlimit:10;" fill="none" stroke="#ff0000" stroke-width="15" stroke-linecap="round" stroke-linejoin="round" stroke-miterlimit="10" data-original="#000000" opacity="1"/>
    <path d="M191.965 117.389c17.961-5.619 40.094-8.936 64.035-8.936 60.044 0 108.719 20.861 108.719 46.594S316.044 201.641 256 201.641s-108.719-20.861-108.719-46.594c0-8.114 4.839-15.743 13.348-22.387M147.281 232.703v46.594c0 25.733 48.675 46.594 108.719 46.594s108.719-20.861 108.719-46.594v-46.594" style="stroke-width:15;stroke-linecap:round;stroke-linejoin:round;stroke-miterlimit:10;" fill="none" stroke="#ff0000" stroke-width="15" stroke-linecap="round" stroke-linejoin="round" stroke-miterlimit="10" data-original="#000000" opacity="1"/>
    <path d="M308.013 273.629c-15.45 3.614-33.172 5.668-52.013 5.668-60.044 0-108.719-20.861-108.719-46.594 0-5.298 2.063-10.389 5.864-15.134M358.816 217.52c3.826 4.759 5.903 9.867 5.903 15.183 0 10.764-8.516 20.675-22.819 28.564M358.816 295.176c3.826 4.759 5.903 9.867 5.903 15.183 0 25.733-48.675 46.594-108.719 46.594s-108.719-20.861-108.719-46.594c0-5.298 2.063-10.389 5.864-15.134" style="stroke-width:15;stroke-linecap:round;stroke-linejoin:round;stroke-miterlimit:10;" fill="none" stroke="#ff0000" stroke-width="15" stroke-linecap="round" stroke-linejoin="round" stroke-miterlimit="10" data-original="#000000" opacity="1"/>
    <path d="M147.281 310.359v46.594c0 25.733 48.675 46.594 108.719 46.594s108.719-20.861 108.719-46.594v-46.594M504.5 69.625c0 12.867-20.861 23.297-46.594 23.297s-46.594-10.43-46.594-23.297" style="stroke-width:15;stroke-linecap:round;stroke-linejoin:round;stroke-miterlimit:10;" fill="none" stroke="#ff0000" stroke-width="15" stroke-linecap="round" stroke-linejoin="round" stroke-miterlimit="10" data-original="#000000" opacity="1"/>
    <ellipse cx="457.906" cy="30.797" rx="46.594" ry="23.297" style="stroke-width:15;stroke-linecap:round;stroke-linejoin:round;stroke-miterlimit:10;" fill="none" stroke="#ff0000" stroke-width="15" stroke-linecap="round" stroke-linejoin="round" stroke-miterlimit="10" data-original="#000000" opacity="1"/>
    <path d="M411.313 217.172v77.656c0 12.867 20.861 23.297 46.594 23.297s46.594-10.43 46.594-23.297v-77.656" style="stroke-width:15;stroke-linecap:round;stroke-linejoin:round;stroke-miterlimit:10;" fill="none" stroke="#ff0000" stroke-width="15" stroke-linecap="round" stroke-linejoin="round" stroke-miterlimit="10" data-original="#000000" opacity="1"/>
    <path d="M504.5 256c0 12.867-20.861 23.297-46.594 23.297s-46.594-10.43-46.594-23.297" style="stroke-width:15;stroke-linecap:round;stroke-linejoin:round;stroke-miterlimit:10;" fill="none" stroke="#ff0000" stroke-width="15" stroke-linecap="round" stroke-linejoin="round" stroke-miterlimit="10" data-original="#000000" opacity="1"/>
    <ellipse cx="457.906" cy="217.172" rx="46.594" ry="23.297" style="stroke-width:15;stroke-linecap:round;stroke-linejoin:round;stroke-miterlimit:10;" fill="none" stroke="#ff0000" stroke-width="15" stroke-linecap="round" stroke-linejoin="round" stroke-miterlimit="10" data-original="#000000" opacity="1"/>
    <path d="M411.313 403.547v77.656c0 12.867 20.861 23.297 46.594 23.297s46.594-10.43 46.594-23.297v-77.656" style="stroke-width:15;stroke-linecap:round;stroke-linejoin:round;stroke-miterlimit:10;" fill="none" stroke="#ff0000" stroke-width="15" stroke-linecap="round" stroke-linejoin="round" stroke-miterlimit="10" data-original="#000000" opacity="1"/>
    <path d="M504.5 442.375c0 12.867-20.861 23.297-46.594 23.297s-46.594-10.43-46.594-23.297" style="stroke-width:15;stroke-linecap:round;stroke-linejoin:round;stroke-miterlimit:10;" fill="none" stroke="#ff0000" stroke-width="15" stroke-linecap="round" stroke-linejoin="round" stroke-miterlimit="10" data-original="#000000" opacity="1"/>
    <ellipse cx="457.906" cy="403.547" rx="46.594" ry="23.297" style="stroke-width:15;stroke-linecap:round;stroke-linejoin:round;stroke-miterlimit:10;" fill="none" stroke="#ff0000" stroke-width="15" stroke-linecap="round" stroke-linejoin="round" stroke-miterlimit="10" data-original="#000000" opacity="1"/>
    <path d="M100.688 30.797v77.656c0 12.867-20.861 23.297-46.594 23.297S7.5 121.32 7.5 108.453V30.797" style="stroke-width:15;stroke-linecap:round;stroke-linejoin:round;stroke-miterlimit:10;" fill="none" stroke="#ff0000" stroke-width="15" stroke-linecap="round" stroke-linejoin="round" stroke-miterlimit="10" data-original="#000000" opacity="1"/>
    <path d="M7.5 69.625c0 12.867 20.861 23.297 46.594 23.297s46.594-10.43 46.594-23.297" style="stroke-width:15;stroke-linecap:round;stroke-linejoin:round;stroke-miterlimit:10;" fill="none" stroke="#ff0000" stroke-width="15" stroke-linecap="round" stroke-linejoin="round" stroke-miterlimit="10" data-original="#000000" opacity="1"/>
    <ellipse cx="54.094" cy="30.797" rx="46.594" ry="23.297" style="stroke-width:15;stroke-linecap:round;stroke-linejoin:round;stroke-miterlimit:10;" fill="none" stroke="#ff0000" stroke-width="15" stroke-linecap="round" stroke-linejoin="round" stroke-miterlimit="10" data-original="#000000" opacity="1"/>
    <path d="M100.688 217.172v77.656c0 12.867-20.861 23.297-46.594 23.297S7.5 307.695 7.5 294.828v-77.656" style="stroke-width:15;stroke-linecap:round;stroke-linejoin:round;stroke-miterlimit:10;" fill="none" stroke="#ff0000" stroke-width="15" stroke-linecap="round" stroke-linejoin="round" stroke-miterlimit="10" data-original="#000000" opacity="1"/>
    <path d="M7.5 256c0 12.867 20.861 23.297 46.594 23.297s46.594-10.43 46.594-23.297" style="stroke-width:15;stroke-linecap:round;stroke-linejoin:round;stroke-miterlimit:10;" fill="none" stroke="#ff0000" stroke-width="15" stroke-linecap="round" stroke-linejoin="round" stroke-miterlimit="10" data-original="#000000" opacity="1"/>
    <ellipse cx="54.094" cy="217.172" rx="46.594" ry="23.297" style="stroke-width:15;stroke-linecap:round;stroke-linejoin:round;stroke-miterlimit:10;" fill="none" stroke="#ff0000" stroke-width="15" stroke-linecap="round" stroke-linejoin="round" stroke-miterlimit="10" data-original="#000000" opacity="1"/>
    <path d="M100.688 403.547v77.656c0 12.867-20.861 23.297-46.594 23.297S7.5 494.07 7.5 481.203v-77.656" style="stroke-width:15;stroke-linecap:round;stroke-linejoin:round;stroke-miterlimit:10;" fill="none" stroke="#ff0000" stroke-width="15" stroke-linecap="round" stroke-linejoin="round" stroke-miterlimit="10" data-original="#000000" opacity="1"/>
    <path d="M7.5 442.375c0 12.867 20.861 23.297 46.594 23.297s46.594-10.43 46.594-23.297M17.727 388.982C11.328 392.971 7.5 398.035 7.5 403.547c0 12.867 20.861 23.297 46.594 23.297s46.594-10.43 46.594-23.297c0-12.866-20.861-23.297-46.594-23.297-.714 0-1.425.008-2.132.024M146.281 256h-44.593M101.688 69.625h76.656l40.946 40.947M101.688 442.375h76.656l40.946-40.947M365.719 256h44.594M410.313 69.625h-76.657l-40.946 40.947M410.313 442.375h-76.657l-40.946-40.947" style="stroke-width:15;stroke-linecap:round;stroke-linejoin:round;stroke-miterlimit:10;" fill="none" stroke="#ff0000" stroke-width="15" stroke-linecap="round" stroke-linejoin="round" stroke-miterlimit="10" data-original="#000000" opacity="1"/>
  </g>
</svg>
