<?xml version="1.0" encoding="UTF-8"?>
<svg xmlns="http://www.w3.org/2000/svg" xmlns:xlink="http://www.w3.org/1999/xlink" version="1.1" width="512" height="512" x="0" y="0" viewBox="0 0 64 64" style="enable-background:new 0 0 512 512" xml:space="preserve">
  <g>
    <path d="M54 12h-3V6a5.006 5.006 0 0 0-5-5H18a5.006 5.006 0 0 0-5 5v6h-3a1 1 0 0 0-1 1v31a1 1 0 0 0 1 1h3v13a5.006 5.006 0 0 0 5 5h28a5.006 5.006 0 0 0 5-5V45h3a1 1 0 0 0 1-1V13a1 1 0 0 0-1-1zM15 6a3.003 3.003 0 0 1 3-3h28a3.003 3.003 0 0 1 3 3v6H15zm-4 8h42v6H11zm38 44a3.003 3.003 0 0 1-3 3H18a3.003 3.003 0 0 1-3-3v-5h34zm0-7H15v-6h34zm4-8H11V22h42z" fill="#ff0000" opacity="1" data-original="#000000"/>
    <circle cx="50" cy="17" r="1" fill="#ff0000" opacity="1" data-original="#000000"/>
    <circle cx="46" cy="17" r="1" fill="#ff0000" opacity="1" data-original="#000000"/>
    <circle cx="42" cy="17" r="1" fill="#ff0000" opacity="1" data-original="#000000"/>
    <path d="M32 60a3 3 0 1 0-3-3 3.003 3.003 0 0 0 3 3zm0-4a1 1 0 1 1-1 1 1 1 0 0 1 1-1zM40 58h4a1 1 0 0 0 0-2h-4a1 1 0 0 0 0 2zM20 58h4a1 1 0 0 0 0-2h-4a1 1 0 0 0 0 2zM36 5h-8a1 1 0 0 0 0 2h8a1 1 0 0 0 0-2z" fill="#ff0000" opacity="1" data-original="#000000"/>
    <circle cx="40" cy="6" r="1" fill="#ff0000" opacity="1" data-original="#000000"/>
    <path d="M23.793 37.707a1 1 0 0 0 1.414-1.414L20.914 32l4.293-4.293a1 1 0 0 0-1.414-1.414l-5 5a1 1 0 0 0 0 1.414zM38.793 37.707a1 1 0 0 0 1.414 0l5-5a1 1 0 0 0 0-1.414l-5-5a1 1 0 0 0-1.414 1.414L43.086 32l-4.293 4.293a1 1 0 0 0 0 1.414zM28.606 39.92a1 1 0 0 0 1.313-.526l6-14a1 1 0 0 0-1.838-.788l-6 14a1 1 0 0 0 .525 1.313z" fill="#ff0000" opacity="1" data-original="#000000"/>
  </g>
</svg>
