<?xml version="1.0" encoding="UTF-8"?>
<svg xmlns="http://www.w3.org/2000/svg" xmlns:xlink="http://www.w3.org/1999/xlink" version="1.1" width="512" height="512" x="0" y="0" viewBox="0 0 512 512" style="enable-background:new 0 0 512 512" xml:space="preserve">
  <g>
    <path d="M16 456V168h16v288a24.028 24.028 0 0 0 24 24h136v16H56a40.045 40.045 0 0 1-40-40Zm16-320a24.028 24.028 0 0 1 24-24h27.056l5.789 11.578A8 8 0 0 0 96 128h80a8 8 0 0 0 7.155-4.422L188.944 112H200V96H56a40.045 40.045 0 0 0-40 40v16h16Zm288 360V379.882a55.637 55.637 0 0 0-16.4-39.6l-47.6-47.6V272h-16v76.687l-19.716-19.717a30.628 30.628 0 0 0-43.314 43.314l29.3 29.3-.56 1.119a92.522 92.522 0 0 0 2.29 87.461V496h16v-8a8.009 8.009 0 0 0-1.14-4.116 76.615 76.615 0 0 1-2.843-74.029l3.138-6.277a8 8 0 0 0-1.5-9.235l-33.371-33.373a14.627 14.627 0 0 1 20.686-20.686l57.373 57.373 11.314-11.314L256 364.686v-49.373l36.284 36.287A39.729 39.729 0 0 1 304 379.882V496ZM64 257.376v-34.752a23.994 23.994 0 1 1 24.642-39.893l23.548-11.767a24 24 0 1 1 47.62 0l23.547 11.766a23.892 23.892 0 0 1 4.637-3.514l8.012 13.849A8 8 0 0 0 200 208v16a23.878 23.878 0 0 1-14.934-5.233l-25.641 16.027a23.855 23.855 0 0 1 0 10.412l25.641 16.027a24 24 0 0 1 6.934-3.857V240h16v17.376a23.994 23.994 0 1 1-24.642 39.893l-23.548 11.767a24 24 0 1 1-47.62 0l-23.548-11.767A23.991 23.991 0 1 1 64 257.376ZM192 280a8 8 0 1 0 8-8 8.009 8.009 0 0 0-8 8Zm-72.642 14.731a24.054 24.054 0 0 1 8.642-5.355v-26.752a24 24 0 0 1-6.934-3.857l-25.641 16.027a23.62 23.62 0 0 1 .385 8.17ZM144 312a8 8 0 1 0-8 8 8.009 8.009 0 0 0 8-8Zm-8-64a8 8 0 1 0-8-8 8.009 8.009 0 0 0 8 8Zm14.934 10.767a23.988 23.988 0 0 1-6.934 3.857v26.752a24.054 24.054 0 0 1 8.642 5.355l23.548-11.767a23.62 23.62 0 0 1 .385-8.17Zm1.708-73.5a24.054 24.054 0 0 1-8.642 5.357v26.752a24 24 0 0 1 6.934 3.857l25.641-16.027a23.574 23.574 0 0 1-.384-8.17ZM128 168a8 8 0 1 0 8-8 8.009 8.009 0 0 0-8 8Zm-32 32a24.018 24.018 0 0 1-.575 5.206l25.641 16.027a24 24 0 0 1 6.934-3.857v-26.752a24.054 24.054 0 0 1-8.642-5.355L95.81 197.036A23.967 23.967 0 0 1 96 200Zm-9.066 18.767A24 24 0 0 1 80 222.624v34.752a24 24 0 0 1 6.934 3.857l25.641-16.027a23.855 23.855 0 0 1 0-10.412ZM64 200a8 8 0 1 0 8-8 8.009 8.009 0 0 0-8 8Zm0 80a8 8 0 1 0 8-8 8.009 8.009 0 0 0-8 8Zm112 168H96v16h80ZM56 352v16h16v-16Zm32 0v16h64v-16Zm-32 48h112v-16H56Zm48 16H56v16h48Zm72 0h-56v16h56Zm320-256V56a40.045 40.045 0 0 0-40-40H256a40.045 40.045 0 0 0-40 40v160a40.045 40.045 0 0 0 40 40h22.241l-6.086 30.431a8 8 0 0 0 11.73 8.562L354.073 256H456a40.045 40.045 0 0 0 40-40v-40h-16v40a24.028 24.028 0 0 1-24 24H352a8.006 8.006 0 0 0-3.885 1.007l-56.878 31.6 4.608-23.036A8 8 0 0 0 288 240h-32a24.028 24.028 0 0 1-24-24V56a24.028 24.028 0 0 1 24-24h200a24.028 24.028 0 0 1 24 24v104Zm-32 16h-8V56h-16v120h-16v-72h-16v72h-16v-64h-16v64h-16v-40h-16v40h-16v-48h-16v48h-16v-24h-16v24h-16V56h-16v128a8 8 0 0 0 8 8h208ZM333.657 74.343a8 8 0 0 0-10.095-1l-48 32 8.876 13.312 42.542-28.361 19.363 19.363a8 8 0 0 0 10.306.853l37.806-27 2.066 2.852A8 8 0 0 0 403 89.667c.2 0 .4-.008.6-.022a8 8 0 0 0 6.508-4.315l11.333-22a8 8 0 0 0-7.941-11.619l-25.333 2.666a8 8 0 0 0-5.642 12.648l2.55 3.523-32.206 23ZM248 224h16v-16h-16Zm48 0v-16h-16v16Zm32 0v-16h-16v16Zm32 0v-16h-16v16Zm32 0v-16h-16v16Zm32 0v-16h-16v16Zm32 0v-16h-16v16Z" fill="#ff0000" opacity="1" data-original="#000000"/>
  </g>
</svg>
