<?xml version="1.0" encoding="UTF-8"?>
<svg xmlns="http://www.w3.org/2000/svg" xmlns:xlink="http://www.w3.org/1999/xlink" version="1.1" width="512" height="512" x="0" y="0" viewBox="0 0 512 512" style="enable-background:new 0 0 512 512" xml:space="preserve">
  <g>
    <path d="M438.69 275.33h-167.3c-14.49 0-26.28 11.78-26.28 26.25v151.94c0 14.47 11.79 26.25 26.28 26.25h75.66v16.24H296.4c-4.42 0-7.99 3.58-7.99 7.99s3.58 7.99 7.99 7.99h117.3c4.42 0 7.99-3.58 7.99-7.99s-3.58-7.99-7.99-7.99h-50.66v-16.24h75.66c14.47 0 26.25-11.78 26.25-26.25V301.58c-.01-14.47-11.78-26.25-26.26-26.25zm-167.3 15.99h167.3c5.66 0 10.26 4.6 10.26 10.26v130H261.1v-130c0-5.66 4.62-10.26 10.29-10.26zm167.3 172.46h-167.3c-5.67 0-10.29-4.6-10.29-10.26v-5.95h187.85v5.95c0 5.66-4.6 10.26-10.26 10.26zM166.48 0H75.72c-15.8 0-28.66 12.86-28.66 28.66v189.01c0 15.8 12.86 28.66 28.66 28.66h90.76c15.8 0 28.66-12.86 28.66-28.66V28.66c0-15.8-12.86-28.66-28.66-28.66zm12.67 217.68c0 6.99-5.68 12.67-12.67 12.67H75.72c-6.99 0-12.67-5.68-12.67-12.67V28.66c0-6.99 5.68-12.67 12.67-12.67h90.76c6.99 0 12.67 5.68 12.67 12.67zm-20.12-181c0 4.42-3.58 7.99-7.99 7.99H91.17c-4.42 0-7.99-3.58-7.99-7.99s3.58-7.99 7.99-7.99h59.87c4.41 0 7.99 3.58 7.99 7.99zm-27.53 173c0 4.42-3.58 7.99-7.99 7.99h-4.82c-4.42 0-7.99-3.58-7.99-7.99s3.58-7.99 7.99-7.99h4.82c4.41 0 7.99 3.58 7.99 7.99zm-4.75 75.99a7.985 7.985 0 0 0-5.65-2.34c-2.12 0-4.15.84-5.65 2.34l-48.22 48.22c-2.29 2.29-2.97 5.72-1.73 8.71s4.15 4.94 7.38 4.94h27.54c0 .18-.01.36-.01.54-.39 21.39-.72 39.86 7.45 54.39 9.19 16.34 27.48 24.56 57.57 25.85.12 0 .23.01.34.01 3.28 0 6.24-2.01 7.44-5.09 1.24-3.18.33-6.81-2.28-9.01-5.8-4.9-10.75-8.56-14.74-11.5-12.79-9.44-15.1-11.14-14.92-31.12.06-7.99.12-12.43.19-17.21.03-2.11.06-4.29.09-6.86h27.72c3.23 0 6.15-1.95 7.38-4.93s.55-6.42-1.73-8.71zm6.91 45.87c-4.38 0-7.95 3.53-7.99 7.92-.06 6.59-.12 10.76-.18 14.71-.07 4.8-.13 9.27-.19 17.3-.18 19.54 3.03 27.93 10.63 35.38-20.43-8.83-20.08-28.05-19.53-58.48.05-2.86.1-5.77.14-8.73.02-2.14-.81-4.19-2.31-5.71s-3.55-2.37-5.68-2.37H92.18l28.92-28.92 28.9 28.92h-16.34zm215.73-105.23a7.974 7.974 0 0 0 5.65 2.34c2.05 0 4.09-.78 5.65-2.34l48.19-48.19c2.29-2.29 2.97-5.72 1.73-8.71s-4.15-4.94-7.38-4.94h-27.52c0-.19.01-.38.01-.58.38-21.38.7-39.85-7.47-54.38-9.2-16.34-27.49-24.55-57.57-25.83-3.43-.16-6.54 1.9-7.79 5.08a7.996 7.996 0 0 0 2.29 9.01c5.81 4.9 10.77 8.56 14.75 11.5 12.8 9.44 15.11 11.14 14.92 31.09-.06 7.29-.12 11.62-.18 15.96-.04 2.52-.07 5.04-.11 8.14h-27.74c-3.23 0-6.15 1.95-7.39 4.94s-.55 6.43 1.74 8.71zm-6.9-45.85c4.39 0 7.96-3.54 7.99-7.93.06-7.29.12-11.63.18-15.96.06-4.37.13-8.73.18-16.06.18-19.52-3.03-27.91-10.64-35.35 20.4 8.82 20.06 28.04 19.53 58.46-.05 2.87-.1 5.79-.13 8.77-.02 2.13.81 4.19 2.31 5.71s3.55 2.37 5.68 2.37h16.33l-28.89 28.89-28.91-28.89h16.37z" fill="#ff0000" opacity="1" data-original="#000000"/>
  </g>
</svg>
