<?xml version="1.0" encoding="UTF-8"?>
<svg xmlns="http://www.w3.org/2000/svg" xmlns:xlink="http://www.w3.org/1999/xlink" version="1.1" width="512" height="512" x="0" y="0" viewBox="0 0 512 512" style="enable-background:new 0 0 512 512" xml:space="preserve">
  <g>
    <linearGradient id="a" x1="18.34" x2="421.343" y1="493.66" y2="90.657" gradientUnits="userSpaceOnUse">
      <stop stop-opacity="1" stop-color="#fcc60e" offset="0"/>
      <stop stop-opacity="1" stop-color="#e92e29" offset="0"/>
    </linearGradient>
    <path fill="url(#a)" d="M468.695 257.188c-16.715 0-30.744 11.68-34.379 27.305h-31.332c-2.799-25.151-19.797-46.792-43.749-55.432-7.36-44.489-45.789-77.415-91.467-77.415a92.648 92.648 0 0 0-26.628 3.882 102.106 102.106 0 0 0-13.633-10.099V77.684c15.625-3.635 27.305-17.665 27.305-34.379C254.812 23.838 238.975 8 219.507 8c-19.467 0-35.305 15.838-35.305 35.305 0 16.715 11.681 30.744 27.306 34.379v59.684a101.697 101.697 0 0 0-37.58-7.171c-28.981 0-55.174 12.168-73.738 31.664l-26.918-26.918c8.477-13.619 6.816-31.798-5.002-43.617-13.766-13.763-36.162-13.765-49.93 0-13.765 13.766-13.765 36.163.001 49.929 6.883 6.882 15.924 10.323 24.964 10.323a35.298 35.298 0 0 0 18.653-5.321l28.091 28.091c-11.324 16.412-17.966 36.291-17.966 57.695l.001.363c-22.326 11.374-36.467 34.132-36.467 59.429 0 36.789 29.931 66.72 66.72 66.72h37.095v2.7l-77.473 77.473c-13.619-8.476-31.796-6.815-43.618 5.002-13.765 13.766-13.765 36.163 0 49.929 6.884 6.883 15.924 10.324 24.966 10.324 9.04 0 18.082-3.442 24.964-10.324 11.818-11.819 13.479-29.998 5.002-43.617l66.159-66.158V457.6c0 10.008 8.142 18.149 18.149 18.149h123.854c10.008 0 18.149-8.142 18.149-18.149v-73.716l66.159 66.158c-8.477 13.619-6.816 31.798 5.002 43.618 6.883 6.882 15.923 10.323 24.964 10.323s18.083-3.441 24.966-10.324c13.765-13.766 13.765-36.163 0-49.929-11.819-11.818-29.999-13.479-43.618-5.002l-77.473-77.473v-2.7h37.095c33.854 0 61.879-25.351 66.139-58.062h31.498c3.635 15.624 17.665 27.305 34.379 27.305 19.467 0 35.305-15.838 35.305-35.305s-15.838-35.305-35.305-35.305zM200.202 43.305c0-10.645 8.66-19.305 19.305-19.305 10.646 0 19.306 8.66 19.306 19.305s-8.66 19.305-19.306 19.305c-10.645-.001-19.305-8.661-19.305-19.305zM29.654 129.94c-7.527-7.526-7.527-19.773-.001-27.3a19.246 19.246 0 0 1 13.651-5.646c4.943 0 9.888 1.882 13.65 5.646 7.527 7.526 7.527 19.773 0 27.3-7.524 7.527-19.772 7.528-27.3 0zm27.301 352.406c-7.525 7.527-19.773 7.526-27.301-.001-7.527-7.526-7.527-19.773-.001-27.3a19.246 19.246 0 0 1 13.651-5.646c4.943 0 9.888 1.882 13.65 5.646 7.528 7.526 7.528 19.773.001 27.301zm352.405-27.301c7.527 7.526 7.527 19.773 0 27.3s-19.775 7.527-27.301.002c-7.527-7.528-7.527-19.775 0-27.302 3.763-3.764 8.707-5.646 13.65-5.646s9.889 1.882 13.651 5.646zM283.584 457.6c0 1.165-.984 2.149-2.149 2.149H157.58c-1.165 0-2.149-.984-2.149-2.149V243.51c0-1.165.984-2.149 2.149-2.149h15.14l6.527 17.65a7.998 7.998 0 0 0 7.503 5.226h65.516a8 8 0 0 0 7.504-5.226l6.526-17.65h15.139c1.165 0 2.149.984 2.149 2.149zm-93.806-216.24h59.458l-2.542 6.876h-54.373zm146.901 101.195h-37.095V243.51c0-10.008-8.142-18.149-18.149-18.149H157.58c-10.008 0-18.149 8.142-18.149 18.149v99.045h-37.095c-27.967 0-50.72-22.753-50.72-50.72 0-20.66 12.426-39.099 31.656-46.973a8.002 8.002 0 0 0 4.956-7.86 86.345 86.345 0 0 1-.146-4.959c0-47.336 38.51-85.846 85.846-85.846 22.392 0 43.587 8.575 59.682 24.146a7.997 7.997 0 0 0 8.263 1.781c8.288-2.972 17.001-4.479 25.896-4.479 39.266 0 72.057 29.394 76.275 68.372a8 8 0 0 0 5.854 6.859c22.08 6.007 37.501 26.139 37.501 48.957-.001 27.969-22.753 50.722-50.72 50.722zm132.016-30.757c-10.645 0-19.305-8.66-19.305-19.305s8.66-19.305 19.305-19.305S488 281.849 488 292.493s-8.66 19.305-19.305 19.305zM317.894 96.05a8.002 8.002 0 0 1 7.632-8.353c25.787-1.147 49.605 7.824 67.087 25.306 17.481 17.482 26.469 41.308 25.306 67.087a8.001 8.001 0 0 1-8.352 7.632 8 8 0 0 1-7.632-8.353c.959-21.235-6.37-40.786-20.636-55.052-14.264-14.265-33.804-21.585-55.052-20.636a7.978 7.978 0 0 1-8.353-7.631zm-1.56 34.559a8.002 8.002 0 0 1 7.632-8.353c16.555-.754 31.86 5.037 43.108 16.285 11.247 11.248 17.03 26.558 16.284 43.107a8 8 0 0 1-15.984-.721c.542-12.007-3.583-23.041-11.614-31.072-8.031-8.032-19.051-12.174-31.073-11.615-4.421.162-8.154-3.218-8.353-7.631zm3.119-69.117a8.002 8.002 0 0 1 7.632-8.353c35.004-1.571 67.354 10.613 91.066 34.325 23.712 23.713 35.902 56.055 34.324 91.066a8 8 0 1 1-15.984-.721c1.374-30.468-9.157-58.535-29.654-79.031-20.496-20.498-48.573-31.039-79.031-29.655-4.436.177-8.154-3.218-8.353-7.631zM181.928 173.659a8 8 0 0 1-8 8c-27.782 0-50.384 22.602-50.384 50.383a8 8 0 0 1-16 0c0-36.604 29.779-66.383 66.384-66.383a8 8 0 0 1 8 8zm55.968 270.698a8 8 0 0 1-8 8l-20.778-.001a8 8 0 1 1 0-16l20.778.001a8 8 0 0 1 8 8z" opacity="1" data-original="url(#a)"/>
  </g>
</svg>
